<svg width="512" height="512" xmlns="http://www.w3.org/2000/svg" xml:space="preserve" version="1.1">

 <g>
  <title>Layer 1</title>
  <g id="svg_1">
   <g id="svg_2">
    <path stroke="#000000" fill="#ffffff" id="svg_3" d="m256,0c-141.155,0 -256,114.839 -256,256s114.845,256 256,256c141.161,0 256,-114.839 256,-256s-114.845,-256 -256,-256zm0,474.628c-120.55,0 -218.628,-98.078 -218.628,-218.628s98.078,-218.628 218.628,-218.628s218.628,98.077 218.628,218.622c0,120.556 -98.078,218.634 -218.628,218.634z"/>
   </g>
  </g>
  <g id="svg_4">
   <g id="svg_5">
    <path stroke="#000000" fill="#ffffff" id="svg_6" d="m343.202,256l-80.973,0l0,-112.117c0,-10.321 -8.365,-18.686 -18.686,-18.686s-18.686,8.365 -18.686,18.686l0,130.803c0,10.321 8.365,18.686 18.686,18.686l99.659,0c10.321,0 18.686,-8.365 18.686,-18.686s-8.365,-18.686 -18.686,-18.686z"/>
   </g>
  </g>
  <g id="svg_7"/>
  <g id="svg_8"/>
  <g id="svg_9"/>
  <g id="svg_10"/>
  <g id="svg_11"/>
  <g id="svg_12"/>
  <g id="svg_13"/>
  <g id="svg_14"/>
  <g id="svg_15"/>
  <g id="svg_16"/>
  <g id="svg_17"/>
  <g id="svg_18"/>
  <g id="svg_19"/>
  <g id="svg_20"/>
  <g id="svg_21"/>
 </g>
</svg>