<?xml version="1.0" encoding="utf-8"?>
<!-- Generator: Adobe Illustrator 22.0.0, SVG Export Plug-In . SVG Version: 6.00 Build 0)  -->
<svg version="1.1" id="Слой_1" xmlns="http://www.w3.org/2000/svg" xmlns:xlink="http://www.w3.org/1999/xlink" x="0px" y="0px"
	 viewBox="0 0 25 25" style="enable-background:new 0 0 25 25;" xml:space="preserve">
<style type="text/css">
	.st0{fill:#EF9207;}
	.st1{fill:#667FB5;}
	.st2{fill:#FFFFFF;}
</style>
<g>
	<path class="st0" d="M11.9,15.5c1.2-1.2,2.3-2.3,3.4-3.4c0.3,0.3,0.9,0.8,1.2,1.1c2,1.9,3.9,3.9,5.9,5.9c1.1,1.1,1.2,2.5,0.2,3.5
		c-1,1-2.4,0.9-3.5-0.2C16.8,20.3,14.2,17.7,11.9,15.5z"/>
	<path class="st1" d="M11.5,10.7c0,0,0.5,0.5,0.5,0.6c-1.6,1.8-2.1,0.7-3.7-1c-1.5-1.5-3-2.9-5-3.7C2.9,6.4,2.7,6.2,2.5,5.9
		C2.1,5.1,1.7,4.2,1.3,3.4C1.1,3,1.1,2.7,1.4,2.4C3,0.8,2.7,1.1,4.2,1.9c2.6,1.3,2,1.2,2.5,2.6C7.5,6.5,9.5,8,10.9,9.3
		c0.4,0.4,0.8,0.7,1,0.9C11.9,10.2,11.5,10.6,11.5,10.7z"/>
	<path class="st2" d="M24.6,3.6c1.7,3.8-1.6,8.1-5.7,7.8c-0.1,0-0.5-0.1-0.5-0.1c-1.1-0.4-1.2-0.1-2.4,1.1c-1.4,1.5-2.9,2.9-4.4,4.4
		c-0.4,0.4-0.5,0.7-0.3,1.2c0.6,2.1,0,4-1.6,5.5c-1.6,1.5-3.5,1.9-5.7,1.3c-0.1,0-0.2-0.1-0.4-0.2c1-1,1.9-1.9,2.9-2.8
		c0.3-0.3,0.6-0.6,0.8-0.9c0.9-1,0.8-2.3,0-3.1c-0.9-0.9-2.2-0.9-3.1,0C3.1,18.7,2,19.8,1,20.9c-0.1,0.1-0.3,0.2-0.5,0.4
		c-0.6-1.3-0.6-2.5-0.2-3.8C1.2,14.7,4,13.1,7,13.8c0.5,0.1,0.9,0,1.2-0.4c1.7-1.7,3.4-3.4,5.1-5.1c0.4-0.4,0.5-0.7,0.4-1.3
		c-0.5-2.2,0.1-4.2,1.8-5.6c1.7-1.4,3.6-1.7,5.9-0.8c-0.4,0.4-0.9,0.7-1.3,1.1c-0.8,0.8-1.7,1.6-2.5,2.5c-0.9,1-0.8,2.3,0.1,3.2
		c0.9,0.8,2.1,0.8,3.1-0.1c1-1,2-2,3-2.9C24.1,4,24.3,3.8,24.6,3.6z"/>
</g>
</svg>
