<?xml version="1.0" encoding="utf-8"?>
<!-- Generator: Adobe Illustrator 22.0.0, SVG Export Plug-In . SVG Version: 6.00 Build 0)  -->
<svg version="1.1" id="Слой_1" xmlns="http://www.w3.org/2000/svg" xmlns:xlink="http://www.w3.org/1999/xlink" x="0px" y="0px"
	 viewBox="0 0 26 34" style="enable-background:new 0 0 26 34;" xml:space="preserve">
<style type="text/css">
	.st0{fill:#44644E;}
	.st1{fill:#EA473B;}
	.st2{fill:#7A9F86;}
</style>
<path class="st0" d="M19.2,10.1c-0.5-0.2-0.9-0.4-1.3-0.6c-0.1,0-0.1-0.2-0.1-0.3c0-0.3,0-1.2,0-1.5c0-0.3,0-0.4-0.4-0.4
	c-1,0-2,0-3,0c-1.9,0-3.9,0-5.8,0c-0.2,0-0.3,0.1-0.3,0.3c0,0.3,0,1.2,0,1.5c0,0.1-0.1,0.2-0.2,0.3C7.8,9.6,7.4,9.8,7,10
	c0-0.1,0-0.2,0-0.3c0-1,0-2.5,0-3.5c0-0.2,0.1-0.3,0.3-0.3c1.9,0,3.9,0,5.8,0c2,0,3.9,0,5.9,0c0.3,0,0.4,0.1,0.4,0.4
	c0,1,0,2.5,0,3.5C19.2,9.8,19.2,9.9,19.2,10.1z"/>
<path class="st1" d="M16.3,5.9c0.5,0.5,1,1,1.5,1.5c0,0,0,0,0,0.1c-0.1,0-0.2,0-0.3,0c-2.8,0-5.7,0-8.5,0c-0.2,0-0.3-0.1-0.5-0.2
	c-2.3-2.3-4.7-4.7-7-7C1.4,0.3,1.4,0.2,1.3,0c0.2,0,0.3,0,0.4,0c2.7,0,5.4,0,8.1,0c0.2,0,0.3,0.1,0.4,0.2C11.1,1.1,12.1,2,13,2.9
	c0.2,0.2,0.3,0.2,0.5,0c0.9-0.9,1.8-1.7,2.7-2.6C16.4,0.1,16.6,0,16.9,0c2.7,0,5.4,0,8,0c0.1,0,0.2,0,0.4,0
	c-0.1,0.1-0.2,0.2-0.2,0.3c-1.3,1.2-2.5,2.4-3.8,3.6c-0.6,0.6-1.3,1.2-1.9,1.8c-0.1,0.1-0.3,0.2-0.5,0.2c-0.7,0-1.5,0-2.2,0
	C16.6,5.9,16.5,5.9,16.3,5.9z"/>
<ellipse class="st2" cx="13" cy="20.9" rx="13" ry="13.1"/>
<path class="st0" d="M22.9,20.6c0,2.7-0.9,4.9-2.6,6.8c-1.8,2-4.1,3.1-6.8,3.2c-2.7,0.1-5-0.7-7-2.5c-1.9-1.7-3.1-3.9-3.3-6.4
	c-0.3-2.7,0.5-5.2,2.2-7.3c1.7-2,3.8-3.2,6.4-3.5c2.9-0.3,5.6,0.4,7.8,2.4C21.8,15.4,22.9,17.9,22.9,20.6z M8,27.8
	C8.1,27.8,8.1,27.8,8,27.8c0.1,0,0.2,0,0.2-0.1c1.5-1.1,3-2.2,4.5-3.3c0.3-0.2,0.4-0.2,0.7,0c1.4,1.1,2.9,2.2,4.3,3.3
	c0.1,0.1,0.2,0.1,0.3,0.2c0-0.3-0.1-0.5-0.2-0.7c-0.5-1.6-1-3.3-1.5-4.9c-0.1-0.2,0-0.4,0.2-0.5c1.6-1.1,3.1-2.3,4.7-3.4
	c0,0,0.1-0.1,0.2-0.2c-0.1,0-0.2,0-0.3,0c-1.7,0-3.5,0-5.2,0c-0.7,0-0.7,0-0.9-0.7c-0.5-1.3-0.9-2.7-1.3-4c-0.1-0.4-0.3-0.8-0.4-1.3
	c-0.1,0.2-0.1,0.2-0.2,0.3c-0.2,0.5-0.3,1.1-0.5,1.6c-0.4,1.2-0.8,2.5-1.2,3.7c-0.1,0.2-0.2,0.3-0.4,0.3c-1.9,0-3.7,0-5.6,0
	c-0.1,0-0.2,0-0.3,0c0,0,0,0.1,0,0.1c0,0,0.1,0,0.1,0.1c0.5,0.3,0.9,0.6,1.4,1c1.1,0.8,2.3,1.6,3.4,2.4c0.2,0.1,0.2,0.2,0.1,0.4
	c-0.2,0.5-0.3,1-0.5,1.5c-0.3,1-0.7,2.1-1,3.1C8.3,27.1,8.1,27.5,8,27.8z"/>
</svg>
