<?xml version="1.0" encoding="utf-8"?>
<!-- Generator: Adobe Illustrator 22.0.0, SVG Export Plug-In . SVG Version: 6.00 Build 0)  -->
<svg version="1.1" id="Слой_1" xmlns="http://www.w3.org/2000/svg" xmlns:xlink="http://www.w3.org/1999/xlink" x="0px" y="0px"
	 viewBox="0 0 27 19" style="enable-background:new 0 0 27 19;" xml:space="preserve">
<style type="text/css">
	.st0{fill:#FFFFFF;}
</style>
<path class="st0" d="M17.9,17.7c1.8-0.7,3.3-1.5,4.6-2.7c-6,2.7-12.1,2.7-18.1,0C5.7,16.2,7.2,17,9,17.7c-0.3,0.4-0.7,0.9-1,1.3
	C8,19,7.8,19,7.6,19c-2.8-0.3-5.4-1.2-7.4-3.3C0.1,15.6,0,15.3,0,15c0.3-3.9,1.1-7.6,2.8-11.2C3.3,2.8,4,2,5.1,1.4
	C6.5,0.8,7.8,0.3,9.3,0c0.5-0.1,0.7,0.1,0.8,0.6C8.2,1.1,6.4,1.9,4.9,3.2C7.6,1.8,10.4,1,13.5,1c3.1,0,5.9,0.8,8.6,2.2
	c-0.6-0.8-2-1.5-5.2-2.6C17,0,17.1-0.1,17.7,0c1.9,0.3,3.6,1,5.2,2c0.3,0.2,0.5,0.5,0.7,0.8c1.6,2.7,2.4,5.7,2.9,8.7
	c0.2,1.1,0.3,2.2,0.4,3.3c0.1,0.4,0,0.7-0.3,0.9c-2,2-4.5,2.9-7.3,3.2c-0.2,0-0.5-0.1-0.6-0.3C18.5,18.4,18.2,18.1,17.9,17.7z
	 M11.8,11.2c0-0.9-0.3-1.7-0.9-2.2c-0.8-0.7-1.7-0.7-2.5,0c-1.2,1-1.1,3.1,0,4.2c0.8,0.7,1.8,0.7,2.5,0
	C11.6,12.6,11.8,11.9,11.8,11.2z M19.4,11.1c-0.1-0.8-0.3-1.5-0.8-2c-0.8-0.8-1.8-0.8-2.6,0c-1.1,1-1.1,3,0,4.1
	c0.8,0.7,1.8,0.7,2.6,0C19.1,12.5,19.3,11.8,19.4,11.1z"/>
</svg>
