<?xml version="1.0" encoding="utf-8"?>
<!-- Generator: Adobe Illustrator 22.0.0, SVG Export Plug-In . SVG Version: 6.00 Build 0)  -->
<svg version="1.1" id="Слой_1" xmlns="http://www.w3.org/2000/svg" xmlns:xlink="http://www.w3.org/1999/xlink" x="0px" y="0px"
	 viewBox="0 0 26 23" style="enable-background:new 0 0 26 23;" xml:space="preserve">
<style type="text/css">
	.st0{fill:#996211;}
	.st1{fill:#667FB5;}
	.st2{fill:#EF9207;}
</style>
<g>
	<path class="st0" d="M22.5,11.7c-0.9,0-1.7,0-2.5,0c-4.6,0-9.2,0-13.8,0c-1.1,0-1.2,0.1-1.5,1.2c-0.7,3.2-1.4,6.4-2,9.7
		C2.7,22.9,2.6,23,2.3,23c-0.3,0-0.7,0-1,0C0.5,22.9,0,22.5,0,21.6c0-5.7,0-11.3,0-17c0-1,0.3-1.3,1.3-1.3c1.7,0,3.5,0,5.2,0
		c0.6,0,1.1,0.2,1.5,0.7c0.7,0.9,1.5,1.8,2.2,2.7c0.3,0.4,0.7,0.6,1.2,0.6c3.2,0,6.4,0,9.6,0c1.3,0,1.6,0.3,1.6,1.6
		C22.5,9.8,22.5,10.7,22.5,11.7z"/>
	<path class="st1" d="M13.9,19.5c-0.4,0-0.7,0-1.1-0.1c-0.5-0.1-0.9-0.6-0.9-1.1c0-0.5,0-0.9,0-1.4c0-0.1,0-0.2-0.2-0.3
		c-0.4-0.1-0.8-0.3-1.1-0.5c-0.1-0.1-0.2-0.1-0.3,0c-0.3,0.3-0.6,0.6-0.9,0.9c-0.5,0.5-1.2,0.5-1.8,0c-0.4-0.4-0.7-0.7-1.1-1.1
		c-0.5-0.5-0.5-1.2,0-1.7c0.3-0.3,0.6-0.6,0.9-0.9c0.1-0.1,0.1-0.2,0-0.3c-0.2-0.4-0.3-0.8-0.5-1.2c-0.1-0.1-0.1-0.2-0.3-0.2
		c-0.4,0-0.9,0-1.3,0c-0.7,0-1.2-0.5-1.2-1.2c0-0.5,0-1,0-1.5c0-0.7,0.5-1.3,1.2-1.3c0.4,0,0.9,0,1.3,0c0.1,0,0.2,0,0.2-0.2
		c0.1-0.4,0.3-0.8,0.5-1.2c0.1-0.1,0.1-0.2,0-0.3C7.2,5.8,6.9,5.5,6.6,5.2C6,4.6,6,3.9,6.6,3.4C6.9,3,7.3,2.7,7.7,2.3
		c0.5-0.5,1.2-0.5,1.7,0c0.3,0.3,0.6,0.6,0.9,0.9c0.1,0.1,0.2,0.1,0.3,0.1c0.4-0.2,0.8-0.3,1.2-0.5c0.1-0.1,0.2-0.1,0.2-0.3
		c0-0.4,0-0.9,0-1.3c0-0.7,0.5-1.2,1.2-1.2c0.5,0,1,0,1.5,0c0.7,0,1.2,0.5,1.2,1.2c0,0.4,0,0.9,0,1.3c0,0.1,0,0.2,0.2,0.2
		c0.4,0.1,0.8,0.3,1.2,0.5c0.1,0.1,0.2,0,0.3-0.1c0.3-0.3,0.6-0.6,0.9-0.9c0.5-0.5,1.2-0.5,1.7,0c0.4,0.4,0.7,0.7,1.1,1.1
		c0.5,0.5,0.5,1.2,0,1.7c-0.3,0.3-0.6,0.6-0.9,0.9c-0.1,0.1-0.1,0.2-0.1,0.3c0.2,0.4,0.3,0.8,0.5,1.2c0.1,0.1,0.1,0.2,0.3,0.2
		c0.4,0,0.8,0,1.3,0c0.7,0,1.2,0.5,1.2,1.3c0,0.5,0,1,0,1.5c0,0.7-0.5,1.2-1.2,1.3c-0.4,0-0.8,0-1.3,0c-0.2,0-0.2,0.1-0.3,0.2
		c-0.1,0.4-0.3,0.8-0.5,1.1c-0.1,0.2-0.1,0.2,0.1,0.4c0.3,0.3,0.6,0.6,0.9,0.9c0.5,0.5,0.5,1.2,0,1.8c-0.4,0.4-0.7,0.7-1.1,1.1
		c-0.5,0.5-1.2,0.5-1.8,0c-0.3-0.3-0.6-0.6-0.9-0.9c-0.1-0.1-0.2-0.1-0.3,0c-0.4,0.2-0.8,0.3-1.2,0.5c-0.1,0-0.2,0.1-0.2,0.2
		c0,0.4,0,0.9,0,1.3c0,0.7-0.5,1.2-1.2,1.2C14.4,19.4,14.2,19.4,13.9,19.5C13.9,19.4,13.9,19.5,13.9,19.5z M13.9,13.8
		c2.3,0,4.1-1.8,4-4.1c0-2.3-1.8-4-4-4c-2.2,0-4.1,1.8-4,4.1C9.9,12,11.7,13.7,13.9,13.8z"/>
	<path class="st2" d="M1.8,23c0.8-4.1,1.7-8,2.5-12c0.3,0,0.6,0,0.9,0c6.6,0,13.1,0,19.7,0c1.1,0,1.4,0.4,1.1,1.5
		c-0.4,1.4-0.8,2.9-1.1,4.3c-0.4,1.6-0.8,3.2-1.2,4.8c-0.3,1.2-0.6,1.4-1.8,1.4c-6.4,0-12.8,0-19.2,0C2.3,23,2.1,23,1.8,23z"/>
</g>
</svg>
