<?xml version="1.0" encoding="utf-8"?>
<!-- Generator: Adobe Illustrator 22.0.0, SVG Export Plug-In . SVG Version: 6.00 Build 0)  -->
<svg version="1.1" id="Слой_1" xmlns="http://www.w3.org/2000/svg" xmlns:xlink="http://www.w3.org/1999/xlink" x="0px" y="0px"
	 viewBox="0 0 40 40" style="enable-background:new 0 0 40 40;" xml:space="preserve">
<style type="text/css">
	.st0{fill:#7289DA;}
	.st1{fill:#FFFFFF;}
</style>
<circle class="st0" cx="20" cy="20" r="20"/>
<path class="st1" d="M18.6,16.8c-0.5,0.5-0.9,0.9-1.3,1.3c-0.6,0.6-1.1,1.1-1.7,1.7c-0.3,0.3-0.7,0.7-1,1c-0.3,0.3-0.6,0.4-0.9,0.5
	c-0.5,0.1-1.3-0.5-1.5-1c-0.2-0.6,0-1.1,0.4-1.5c0.3-0.3,0.6-0.6,0.9-0.9c1.8-1.8,3.6-3.7,5.5-5.5c0.7-0.7,1.6-0.7,2.3,0
	c1.1,1.1,2.1,2.1,3.1,3.2c1.1,1.1,2.2,2.2,3.3,3.3c0.3,0.3,0.5,0.7,0.4,1.1c-0.1,0.6-0.4,1.1-1.1,1.3c-0.5,0.2-1,0-1.4-0.4
	c-0.9-0.9-1.9-1.9-2.8-2.8c-0.4-0.4-0.7-0.7-1.1-1.1c0,0-0.1-0.1-0.2-0.1c0,0.1,0,0.2,0,0.3c0,3.4,0,6.8,0,10.2
	c0,0.9-0.6,1.5-1.5,1.5c-0.8,0-1.5-0.7-1.5-1.5c0-3.1,0-6.2,0-9.3c0-0.3,0-0.6,0-0.9C18.6,17,18.6,16.9,18.6,16.8z"/>
</svg>
