<?xml version="1.0" encoding="utf-8"?>
<!-- Generator: Adobe Illustrator 22.0.0, SVG Export Plug-In . SVG Version: 6.00 Build 0)  -->
<svg version="1.1" id="Слой_1" xmlns="http://www.w3.org/2000/svg" xmlns:xlink="http://www.w3.org/1999/xlink" x="0px" y="0px"
	 viewBox="0 0 26 20" style="enable-background:new 0 0 26 20;" xml:space="preserve">
<style type="text/css">
	.st0{fill:#996211;}
	.st1{fill:#FFFFFF;}
	.st2{fill:#EF9207;}
</style>
<g>
	<path class="st0" d="M22.5,8.6c-0.9,0-1.7,0-2.5,0c-4.6,0-9.2,0-13.8,0c-1.1,0-1.2,0.1-1.5,1.2c-0.7,3.3-1.4,6.5-2,9.8
		C2.7,19.9,2.6,20,2.3,20c-0.3,0-0.7,0-1,0C0.5,19.9,0,19.5,0,18.6C0,12.8,0,7.1,0,1.4C0,0.4,0.3,0,1.3,0c1.7,0,3.5,0,5.2,0
		C7.1,0,7.6,0.2,8,0.7c0.7,0.9,1.5,1.8,2.2,2.8C10.5,3.9,10.8,4,11.4,4c3.2,0,6.4,0,9.6,0c1.3,0,1.6,0.3,1.6,1.6
		C22.5,6.6,22.5,7.5,22.5,8.6z"/>
	<path class="st1" d="M9.9,17.2c-1.6-3.1-3.1-6.1-4.6-9.1c4.3-2.2,8.5-4.3,12.9-6.5c1.6,3.2,3.2,6.3,4.8,9.6
		C18.6,13.2,14.3,15.2,9.9,17.2z"/>
	<path class="st2" d="M1.8,20c0.8-4.1,1.7-8.1,2.5-12.1c0.3,0,0.6,0,0.9,0c6.6,0,13.1,0,19.7,0c1.1,0,1.4,0.4,1.1,1.5
		c-0.4,1.5-0.8,2.9-1.1,4.4c-0.4,1.6-0.8,3.2-1.2,4.8c-0.3,1.2-0.6,1.5-1.8,1.5c-6.4,0-12.8,0-19.2,0C2.3,20,2.1,20,1.8,20z"/>
</g>
</svg>
