<?xml version="1.0" encoding="utf-8"?>
<!-- Generator: Adobe Illustrator 22.0.0, SVG Export Plug-In . SVG Version: 6.00 Build 0)  -->
<svg version="1.1" id="Слой_1" xmlns="http://www.w3.org/2000/svg" xmlns:xlink="http://www.w3.org/1999/xlink" x="0px" y="0px"
	 viewBox="0 0 26 23" style="enable-background:new 0 0 26 23;" xml:space="preserve">
<style type="text/css">
	.st0{fill:#FFFFFF;}
	.st1{fill:#667FB5;}
</style>
<g>
	<path class="st0" d="M23.9,16.3c0.9,1.6,0.8,2-0.9,3.3c1,1.8,0.2,3.3-1.9,3.3c-3.2,0-6.3,0-9.5,0c-0.7,0-1.4-0.4-2.1-0.6
		c-0.5-0.1-0.9-0.3-1.5-0.5c0-1,0-2.1,0-3.2c0-1.5,0-2.9,0-4.4c0-1.1,0.4-1.7,1.1-2.6c1.7-2.1,3.2-4.6,4.5-7
		c0.5-0.8,0.1-2.2,0.1-3.3c0-0.7,0.1-1.3,0.8-1.3C15,0,15.8,0.3,16,0.7c1.1,2.1,1.5,4.3,0.8,6.6c-0.2,0.7-0.3,1.5-0.4,2.4
		c2.8,0,5.6,0,8.3,0c0.5,0,1.2,0.4,1.3,0.8c0.1,0.5-0.2,1.2-0.5,1.8c-0.1,0.2-0.5,0.4-0.7,0.5C25.7,14.7,25.6,14.9,23.9,16.3z"/>
	<path class="st1" d="M8.1,23c-2.5,0-4.8,0-7.2,0C0.6,19,0.3,15,0,10.9c2.8,0,5.4,0,8.1,0C8.1,14.9,8.1,18.9,8.1,23z"/>
	<ellipse class="st0" cx="5.9" cy="20.6" rx="1" ry="1.1"/>
</g>
</svg>
