<?xml version="1.0" encoding="utf-8"?>
<!-- Generator: Adobe Illustrator 22.0.0, SVG Export Plug-In . SVG Version: 6.00 Build 0)  -->
<svg version="1.1" id="Слой_1" xmlns="http://www.w3.org/2000/svg" xmlns:xlink="http://www.w3.org/1999/xlink" x="0px" y="0px"
	 viewBox="0 0 30 21" style="enable-background:new 0 0 30 21;" xml:space="preserve">
<style type="text/css">
	.st0{fill:#667FB5;}
	.st1{fill:#EF9207;}
</style>
<g>
	<path class="st0" d="M21,21c0.3-1.2,0.1-2.3-0.7-3.2c-0.6-0.7-1.4-1-2.3-1c-1.1,0-2,0.4-2.6,1.3c-0.7,0.9-0.8,1.8-0.5,2.9
		c-1.8,0-2.8,0-4.6,0c0.1-0.2-0.5-0.2-0.5-0.3c3.2-3.2,6.5-6.5,9.7-9.7c0.5-0.5,0.6-0.9,0.2-1.6c0-0.1,0-0.2,0-0.3
		c0.6-1.2,0.6-2.4,0-3.6c0,0,0,0,0-0.1c0.1,0,0.2,0,0.3,0c1.7,0,3.3,0,5,0c0.6,0,0.8,0.2,0.8,0.8c0,1.5,0,3,0,4.5
		c0,0.7,0.4,1.1,1.1,0.6c0.7-0.5,1.5-0.4,2.2,0.1c0.7,0.5,1,1.2,0.9,2c-0.1,0.9-0.7,1.5-1.6,1.7c-0.6,0.1-1.1,0.1-1.6-0.2
		c-0.6-0.4-1-0.2-1,0.6c0,1.5,0,3.1,0,4.6c0,0.6-0.2,0.8-0.8,0.8C23.7,21,22.4,21,21,21z"/>
	<path class="st1" d="M3.2,14.1c-0.1,0-0.1,0-0.1-0.1c-0.9-0.9-1.9-1.9-2.8-2.8c-0.3-0.3-0.3-0.6,0.1-1C1.4,9.1,2.6,8,3.7,6.8
		C4.1,6.4,4,6,3.4,5.9c-0.1,0-0.1,0-0.2,0c-0.9-0.2-1.5-1-1.6-1.9c0-1,0.5-1.8,1.3-2.1C4.2,1.3,5.6,2,5.9,3.3C5.9,3.6,6,3.9,6.3,3.9
		c0.2,0,0.5-0.1,0.6-0.3c1.1-1.1,2.2-2.2,3.3-3.3c0.4-0.4,0.7-0.4,1.2,0c0.8,0.8,1.7,1.7,2.5,2.5C14,2.9,14.1,3,14.2,3.1
		c-0.1,0.1-0.2,0.2-0.3,0.2c-1.4,0.9-1.8,2.8-1,4.2c0.3,0.6,0.9,0.8,1.4,0.9c1.3,0.3,2.7-0.2,3.4-1.3c0.1-0.1,0.1-0.2,0.2-0.3
		C18.1,7,18.1,7,18.2,7.1c0.8,0.8,1.7,1.7,2.5,2.5c0.4,0.4,0.4,0.7,0,1.1c-3.3,3.3-6.6,6.6-9.9,9.9c-0.4,0.4-0.7,0.4-1.2,0
		c-0.9-0.9-1.9-1.8-2.8-2.8c0.1-0.1,0.2-0.2,0.3-0.2c1.4-0.9,1.9-2.8,1-4.2c-0.5-0.9-1.4-1.1-2.4-1c-1.1,0-1.9,0.6-2.5,1.5
		C3.3,13.9,3.2,14,3.2,14.1z"/>
</g>
</svg>
