<?xml version="1.0" encoding="utf-8"?>
<!-- Generator: Adobe Illustrator 22.0.0, SVG Export Plug-In . SVG Version: 6.00 Build 0)  -->
<svg version="1.1" id="Слой_1" xmlns="http://www.w3.org/2000/svg" xmlns:xlink="http://www.w3.org/1999/xlink" x="0px" y="0px"
	 viewBox="0 0 68 64" style="enable-background:new 0 0 68 64;" xml:space="preserve">
<style type="text/css">
	.st0{fill:#FFFFFF;}
</style>
<g id="layer1" >
	<path id="path840" class="st0" d="M31.5,26.4l-4.6-5l7.7-8.3l-12.9-1.7l-14.9,14l0.6,0.8H31.5z"
		/>
	<path id="path843" class="st0" d="M35,0c7.7,8.5,13.7,16.7,16.4,26.2
		h8.5C54.9,13.2,44.6,4.5,35,0z"/>
	<path id="path859" class="st0" d="M19.3,52.2h-11
		c-1.2,1.2-5.4,4.3-5.6,7.6c0,3.3,2.1,3.9,3.5,3.9c4.4,0,9.1-7.4,10.4-9.9C17.6,53.1,18.5,52.7,19.3,52.2z"/>
	<path id="path866" class="st0" d="M23.2,52.2L57.4,52
		c4.1,3.5,6.2,6,6.2,8.1c0,2.3-2.7,3.9-4.1,3.9c-2.5,0-7.9-6.4-10.8-9.5c-3.7,2.1-6.6,3.1-10.4,3.1C31.1,57.6,23.8,53.7,23.2,52.2z"
		/>
	<path id="path873" class="st0" d="M0,29.5v19.4
		c0,0.4,0.6,0.4,1.2,0.4c1.2,0.2,2.9-0.1,5.6,0v-7.6h7.9v7.6h6.6c0.2-1,1-8.1-2.5-9.7c1.7-1.2,2.5-1.4,2.5-5.2c0-5-2.1-5-7.9-5H0z
		 M6.6,33h7.5c0.6,0,1.2,0.2,1.2,0.8v3.9H6.6V33z"/>
	<path id="path899" class="st0" d="M44.4,29.3H28.8
		c-3.1,0-5.6,1.4-5.6,4.7V45c0.2,3.1,1.5,4.3,6.8,4.3h8.3c3.1,0,6.2-0.2,6.2-3.1v-8.9h-6.6V44h-8.1v-9.1l14.5-0.2V29.3z"/>
	<path id="path906" class="st0" d="M46.9,29.5v19.8h16.4
		c1.7,0,4.8-0.6,4.8-4.1v-12c0-2.9-2.9-3.7-4.8-3.7H46.9z M53.3,34.9h8.1V44h-8.1V34.9z"/>
</g>
</svg>
