<?xml version="1.0" standalone="no"?>
<!DOCTYPE svg PUBLIC "-//W3C//DTD SVG 20010904//EN"
 "http://www.w3.org/TR/2001/REC-SVG-20010904/DTD/svg10.dtd">
<svg version="1.0" xmlns="http://www.w3.org/2000/svg"
 width="102.000000pt" height="102.000000pt" viewBox="0 0 102.000000 102.000000"
 preserveAspectRatio="xMidYMid meet">
<metadata>
Created by potrace 1.14, written by Peter Selinger 2001-2017
</metadata>
<g transform="translate(0.000000,102.000000) scale(0.100000,-0.100000)"
fill="#000000" stroke="none">
<path d="M574 934 c20 -20 33 -41 29 -47 -3 -6 -1 -7 5 -3 7 4 12 3 12 -2 0
-8 8 -19 49 -68 5 -6 12 -20 15 -32 4 -12 11 -22 16 -22 8 0 23 -38 21 -52 -1
-5 3 -8 9 -8 5 0 12 -16 16 -35 3 -19 10 -32 15 -29 5 3 9 -4 9 -15 0 -25 7
-27 74 -23 46 3 54 6 49 20 -4 10 -9 19 -12 22 -3 3 -17 28 -31 55 -14 28 -31
54 -37 58 -7 4 -13 15 -13 23 0 8 -4 12 -10 9 -5 -3 -10 -2 -10 4 0 10 -66 81
-75 81 -3 0 -18 12 -34 28 -29 28 -102 72 -121 72 -6 0 5 -16 24 -36z"/>
<path d="M319 800 c-7 -13 -8 -13 -9 0 0 9 -7 4 -15 -12 -8 -15 -24 -30 -35
-33 -11 -4 -18 -11 -15 -16 4 -5 -1 -12 -11 -16 -22 -8 -127 -113 -120 -120 4
-4 163 -6 314 -4 l44 1 -31 30 c-30 31 -32 54 -5 64 8 3 14 13 14 21 0 9 4 14
9 10 5 -3 12 4 16 15 4 11 10 18 15 15 4 -3 10 4 13 15 4 15 0 20 -15 20 -11
0 -16 4 -12 11 4 7 -1 7 -16 -1 -12 -7 -20 -7 -16 -2 4 6 -17 12 -55 14 -46 2
-63 -1 -70 -12z"/>
<path d="M5 542 c-3 -3 -5 -69 -5 -148 0 -158 -2 -155 72 -146 l38 4 0 57 0
56 32 -2 c18 -1 45 -2 61 -2 15 -1 27 -6 27 -12 0 -5 -6 -7 -12 -3 -10 6 -9 3
0 -8 8 -9 13 -25 12 -35 -6 -53 -2 -60 39 -57 52 3 58 7 55 46 -1 18 -3 43 -3
56 -1 13 -5 21 -10 18 -17 -11 -19 34 -3 50 11 11 15 30 13 57 -5 67 -15 71
-172 73 -76 1 -141 -1 -144 -4z m225 -84 l0 -34 -60 -1 c-62 -1 -73 5 -76 43
-1 19 5 21 68 23 l68 2 0 -33z"/>
<path d="M374 525 c-24 -21 -25 -26 -23 -132 2 -140 4 -143 127 -144 156 -2
166 -1 181 23 15 24 23 81 11 73 -10 -6 -7 21 3 31 12 12 8 26 -5 18 -8 -5 -7
0 2 11 9 11 10 16 3 11 -7 -4 -13 -3 -13 3 0 5 -20 9 -45 8 l-45 -1 0 -48 0
-48 -60 0 -60 0 0 65 0 65 43 1 c23 1 70 1 105 1 55 0 62 3 62 20 0 13 4 17
13 12 7 -5 6 0 -3 11 -8 10 -14 20 -12 22 11 16 -15 20 -129 20 -118 -1 -133
-3 -155 -22z"/>
<path d="M714 535 c-3 -6 -3 -73 -2 -150 l3 -139 128 1 c182 1 177 -4 177 148
0 100 -3 125 -16 136 -20 17 -284 20 -290 4z m210 -140 l1 -60 -60 0 -60 0 -2
63 -1 63 61 -3 60 -3 1 -60z"/>
<path d="M87 168 c-33 -35 -38 -45 -36 -84 3 -45 6 -48 54 -47 39 1 45 3 43
16 -2 6 2 11 8 10 7 -1 20 9 30 23 11 14 27 35 37 46 9 12 17 27 17 34 0 8 12
17 26 20 43 11 8 22 -70 22 -70 0 -72 0 -109 -40z"/>
<path d="M360 199 c0 -6 9 -13 20 -16 11 -3 17 -9 14 -14 -3 -5 1 -9 8 -10 33
-2 63 -10 69 -21 11 -17 178 -15 190 3 7 12 9 12 9 -1 0 -9 3 -11 8 -5 4 6 19
16 33 22 24 10 29 9 48 -18 12 -16 27 -27 33 -23 6 4 8 3 5 -3 -7 -11 28 -53
44 -53 6 0 7 -5 3 -12 -4 -6 -3 -8 4 -4 6 3 13 2 17 -4 10 -17 54 -11 74 9 29
29 18 66 -34 117 l-43 44 -232 0 c-182 0 -230 -3 -224 -12 6 -10 4 -10 -7 0
-16 15 -39 16 -39 1z"/>
</g>
</svg>
